<svg version="1.1" id="Art" xmlns:x="ns_extend;" xmlns:i="ns_ai;" xmlns:graph="ns_graphs;" xmlns="http://www.w3.org/2000/svg" xmlns:xlink="http://www.w3.org/1999/xlink" x="0px" y="0px" viewBox="0 0 83.6 95" style="enable-background:new 0 0 83.6 95;" xml:space="preserve">
 <style type="text/css">
  .st0{fill:#009639;}
	.st1{fill:#FFFFFF;}
 </style>
 <metadata>
  <sfw xmlns="ns_sfw;">
   <slices>
   </slices>
   <sliceSourceBounds bottomLeftOrigin="true" height="95" width="83.6" x="-44.5" y="-17.6">
   </sliceSourceBounds>
  </sfw>
 </metadata>
 <g>
  <path class="st0" d="M0.6,71.3C1.1,72,1.7,72.6,2.5,73l36.9,21.3l0,0c1.5,0.9,3.4,0.9,4.9,0L81.1,73c1.5-0.9,2.5-2.5,2.4-4.2V26.2
		l0,0c0-1.8-0.9-3.4-2.5-4.2L44.2,0.7v0c-1.5-0.9-3.4-0.9-4.9,0v0L2.5,22C0.9,22.8,0,24.5,0,26.2l0,0v42.6C0,69.7,0.2,70.5,0.6,71.3
		">
  </path>
  <path class="st1" d="M30,63.7c0,2.6-2.1,4.7-4.7,4.7c-2.6,0-4.7-2.1-4.7-4.7l0,0l0-32.6c0.2-2.7,2.5-4.8,5.3-4.6c0,0,0.1,0,0.1,0
		c2.5,0,4.8,1,6.5,2.9l1.4,1.7l19.8,23.7V31.3h0c0-2.6,2.1-4.7,4.7-4.7c2.6,0,4.7,2.1,4.7,4.7c0,0,0,0,0,0h0l0,32.6
		c-0.2,2.7-2.5,4.8-5.3,4.6c0,0-0.1,0-0.1,0c-2.5,0-4.8-1-6.5-2.9L30,40.1L30,63.7L30,63.7z">
  </path>
 </g>
</svg>